# AST/ASF file generated using VICON BodyLanguage
# -----------------------------------------------
:version 1.10
:name VICON
:units
  mass 1.0
  length 0.45
  angle deg
:documentation
   .ast/.asf automatically generated from VICON data using
   VICON BodyBuilder and BodyLanguage model FoxedUp or BRILLIANT.MOD
:root
   order TX TY TZ RX RY RZ
   axis XYZ
   position 0 0 0  
   orientation 0 0 0 
:bonedata
  begin
     id 1 
     name lhipjoint
     direction 0.653368 -0.678499 0.335782 
     length 2.51848 
     axis 0 0 0  XYZ
  end
  begin
     id 2 
     name lfemur
     direction 0.34202 -0.939693 0  
     length 6.57749  
     axis 0 0 20  XYZ
    dof rx ry rz
    limits (-160.0 20.0)
           (-70.0 70.0)
           (-60.0 70.0)
  end
  begin
     id 3 
     name ltibia
     direction 0.34202 -0.939693 0   
     length 7.94618   
     axis 0 0 20   XYZ
    dof rx
    limits (-10.0 170.0)
  end
  begin
     id 4 
     name lfoot
     direction 0.0811271 -0.222895 0.971461   
     length 2.31339   
     axis -90 7.62852e-016 20   XYZ
    dof rx rz
    limits (-45.0 90.0)
           (-70.0 20.0)
  end
  begin
     id 5 
     name ltoes
     direction 1.53568e-011 -4.21885e-011 1   
     length 1.15935   
     axis -90 7.62852e-016 20   XYZ
    dof rx
    limits (-90.0 20.0)
  end
  begin
     id 6 
     name rhipjoint
     direction -0.640058 -0.688614 0.340788   
     length 2.48149  
     axis 0 0 0  XYZ 
  end
  begin
     id 7 
     name rfemur
     direction -0.34202 -0.939693 0   
     length 6.57875   
     axis 0 0 -20   XYZ
    dof rx ry rz
    limits (-160.0 20.0)
           (-70.0 70.0)
           (-70.0 60.0)
  end
  begin
     id 8 
     name rtibia
     direction -0.34202 -0.939693 0   
     length 7.977   
     axis 0 0 -20   XYZ
    dof rx
    limits (-10.0 170.0)
 end
 begin
     id 9 
     name rfoot
     direction -0.0979793 -0.269196 0.958089   
     length 2.19857  
     axis -90 -7.62852e-016 -20   XYZ
    dof rx rz
    limits (-45.0 90.0)
           (-20.0 70.0)
  end
  begin
     id 10 
     name rtoes
     direction -1.53556e-011 -4.21868e-011 1   
     length 1.09838   
     axis -90 -7.62852e-016 -20   XYZ
    dof rx
    limits (-90.0 20.0)
  end
  begin
     id 11 
     name lowerback
     direction 0.0149039 0.998517 -0.0523597   
     length 2.10809   
     axis 0 0 0   XYZ
    dof rx ry rz
    limits (-20.0 45.0)
           (-30.0 30.0)
           (-30.0 30.0)
  end
  begin
     id 12 
     name upperback
     direction -0.00882659 0.999418 -0.0329624   
     length 2.1102   
     axis 0 0 0   XYZ
    dof rx ry rz
    limits (-20.0 45.0)
           (-30.0 30.0)
           (-30.0 30.0)
  end
  begin
     id 13 
     name thorax
     direction -0.0165585 0.999826 -0.0085833   
     length 2.11039   
     axis 0 0 0   XYZ
    dof rx ry rz
    limits (-20.0 45.0)
           (-30.0 30.0)
           (-30.0 30.0)
  end
  begin
     id 14 
     name lowerneck
     direction -0.0130877 0.999911 0.00260353   
     length 1.73253   
     axis 0 0 0   XYZ
    dof rx ry rz
    limits (-20.0 45.0)
           (-30.0 30.0)
           (-30.0 30.0)
  end
  begin
     id 15 
     name upperneck
     direction -0.0348454 0.928205 -0.370435   
     length 1.66692   
     axis 0 0 0   XYZ
    dof rx ry rz
    limits (-20.0 45.0)
           (-30.0 30.0)
           (-30.0 30.0)
  end
  begin
     id 16
     name head
     direction -0.00807754 0.992494 -0.122026  
     length 1.72765  
     axis 0 0 0   XYZ
    dof rx ry rz
    limits (-20.0 45.0)
           (-30.0 30.0)
           (-30.0 30.0)
  end
  begin
     id 17 
     name lclavicle
     direction 0.987582 0.144023 0.0627671  
     length 3.49235  
     axis 0 0 0   XYZ
    dof ry rz
    limits (-20.0 10.0)
           (0.0 20.0)
  end
  begin
     id 18 
     name lhumerus
     direction 1 -4.48958e-011 -1.45183e-018   
     length 5.41917   
     axis 180 -30 -90   XYZ
    dof rx ry rz
    limits (-60.0 90.0)
           (-90.0 90.0)
           (-90.0 90.0)
  end
  begin
     id 19
     name lradius
     direction 1 -4.48999e-011 5.75106e-027   
     length 2.44373   
     axis 180 -30 -90   XYZ
    dof rx
    limits (-10.0 170.0)
  end
  begin
     id 20
     name lwrist
     direction 1 -4.48987e-011 1.53461e-026   
     length 1.22186   
     axis -1.09697e-014 90 90   XYZ
    dof ry
    limits (-180.0 0.0)
 end
  begin
     id 21 
     name lhand
     direction 1 -4.48881e-011 3.06923e-026   
     length 0.727502   
     axis -1.95843e-014 90 90   XYZ
    dof rx rz
    limits (-90.0 90.0)
           (-45.0 45.0)
  end
  begin
     id 22 
     name lfingers
     direction 1 -4.48907e-011 6.13845e-026   
     length 0.586531   
     axis -3.91686e-014 90 90   XYZ
    dof rx
    limits (0.0 90.0)
  end
  begin
     id 23
     name lthumb
     direction 0.707107 -6.3487e-011 0.707107   
     length 0.842145   
     axis -90 45 2.85299e-015   XYZ
    dof rx rz
    limits (-45.0 45.0)
           (-45.0 45.0)
  end
  begin
     id 24 
     name rclavicle
     direction -0.980998 0.169556 0.0943023   
     length 3.29272  
     axis 0 0 0   XYZ 
    dof ry rz
    limits (-10.0 20.0)
           (-20.0 0.0)
  end
  begin
     id 25 
     name rhumerus
     direction -1 -1.83355e-005 2.45537e-005  
     length 5.58976   
     axis 180 30 90   XYZ
    dof rx ry rz
    limits (-90.0 60.0)
           (-90.0 90.0)
           (-90.0 90.0)
  end
  begin
     id 26 
     name rradius
     direction -1 -4.48967e-011 5.97228e-027   
     length 2.4806   
     axis 180 30 90   XYZ
    dof rx
    limits (-10.0 170.0)
  end
  begin
     id 27 
     name rwrist
     direction -1 -4.48963e-011 1.53461e-026   
     length 1.2403   
     axis -1.09697e-014 -90 -90   XYZ
    dof ry
    limits (-180.0 0.0)
  end
  begin
     id 28
     name rhand
     direction -1 -4.48881e-011 3.06923e-026   
     length 0.816009   
     axis -1.95843e-014 -90 -90   XYZ
    dof rx rz
    limits (-90.0 90.0)
           (-45.0 45.0)
  end
  begin
     id 29
     name rfingers
     direction -1 -4.49018e-011 6.13845e-026   
     length 0.657887   
     axis -3.91686e-014 -90 -90   XYZ
    dof rx
    limits (0.0 90.0)
  end
  begin
     id 30
     name rthumb
     direction -0.707107 -6.34872e-011 0.707107   
     length 0.944599   
     axis -90 -45 -2.85299e-015   XYZ
    dof rx rz
    limits (-45.0 45.0)
           (-45.0 45.0)
  end
:hierarchy
  begin
    root lhipjoint rhipjoint lowerback
    lhipjoint lfemur
    lfemur ltibia
    ltibia lfoot
    lfoot ltoes
    rhipjoint rfemur
    rfemur rtibia
    rtibia rfoot
    rfoot rtoes
    lowerback upperback
    upperback thorax
    thorax lowerneck lclavicle rclavicle
    lowerneck upperneck
    upperneck head
    lclavicle lhumerus
    lhumerus lradius
    lradius lwrist
    lwrist lhand lthumb
    lhand lfingers
    rclavicle rhumerus
    rhumerus rradius
    rradius rwrist
    rwrist rhand rthumb
    rhand rfingers
  end

#!OML:ASF F:\VICON\USERDATA\INSTALL\rory3\rory3.ASF
:FULLY-SPECIFIED
:DEGREES
176
root 4.49796 16.5375 -15.133 28.1414 7.6688 -4.03054
lowerback -17.5577 -0.412957 5.14369
upperback -11.4696 -1.20271 5.11366
thorax -2.49593 -0.685946 2.34171
lowerneck -12.9254 -2.68622 -0.580194
upperneck 43.2386 -3.28911 -1.95151
head 18.4039 -1.65616 -1.42611
rclavicle 1.21756e-014 9.54166e-015
rhumerus -49.625 -0.700165 -73.1038
rradius 21.6436
rwrist -20.0676
rhand -13.4407 20.0725
rfingers 7.12502
rthumb 12.6683 -9.5233
lclavicle 1.21756e-014 9.54166e-015
lhumerus -57.8569 -3.86311 92.9683
lradius 29.9029
lwrist 0.309079
lhand 5.33968 13.707
lfingers 7.12502
lthumb 30.6939 41.1663
rfemur -41.4198 3.59178 34.4524
rtibia 30.0917
rfoot -29.8807 -30.8295
rtoes 18.4225
lfemur -19.0002 20.784 -27.1564
ltibia 39.0357
lfoot 29.5181 44.6278
ltoes 25.4445
177
root 4.4986 16.5378 -15.1341 28.1493 7.64905 -4.05999
lowerback -17.7031 -0.390782 5.17786
upperback -11.3673 -1.19854 5.10937
thorax -2.30998 -0.682874 2.31434
lowerneck -12.9759 -2.7225 -0.652017
upperneck 43.1747 -3.38088 -1.81694
head 18.3835 -1.68685 -1.36569
rclavicle -5.01931e-015 -2.70347e-014
rhumerus -49.5496 -1.30504 -72.8622
rradius 21.5475
rwrist -19.9354
rhand -13.6967 19.7102
rfingers 7.12502
rthumb 12.4215 -9.90071
lclavicle -5.01931e-015 -2.70347e-014
lhumerus -57.5761 -3.86595 92.9595
lradius 29.771
lwrist 0.176338
lhand 5.4043 13.9995
lfingers 7.12502
lthumb 30.7555 41.4473
rfemur -41.4306 3.46231 34.5405
rtibia 30.0875
rfoot -29.7425 -30.6379
rtoes 18.8869
lfemur -19.0436 20.8155 -27.1541
ltibia 39.0583
lfoot 19.7077 46.1514
ltoes 38.6747
178
root 4.49885 16.5377 -15.1346 28.1445 7.69482 -4.15301
lowerback -17.8678 -0.381691 5.33294
upperback -11.2605 -1.23094 5.1254
thorax -2.11322 -0.703558 2.23522
lowerneck -13.0874 -2.72881 -0.704029
upperneck 43.1273 -3.4132 -1.7253
head 18.3891 -1.69614 -1.32056
rclavicle -8.00108e-015 9.54166e-015
rhumerus -49.3926 -2.03037 -72.509
rradius 21.284
rwrist -19.5179
rhand -14.1033 19.4262
rfingers 7.12502
rthumb 12.0295 -10.2081
lclavicle -8.00108e-015 9.54166e-015
lhumerus -57.339 -3.81208 92.9132
lradius 29.8169
lwrist 0.132088
lhand 5.59448 14.6041
lfingers 7.12502
lthumb 30.9368 42.0176
rfemur -41.4207 3.33558 34.7054
rtibia 30.0516
rfoot -29.6381 -30.4835
rtoes 18.8221
lfemur -19.0573 20.7569 -27.0456
ltibia 39.0531
lfoot 28.6638 45.2072
ltoes 26.511
179
root 4.49917 16.5369 -15.1333 28.1139 7.7232 -4.18366
lowerback -17.9425 -0.379756 5.42564
upperback -11.2155 -1.25164 5.10583
thorax -2.02895 -0.718016 2.15734
lowerneck -13.2106 -2.70326 -0.602449
upperneck 43.1848 -3.39894 -1.74694
head 18.4548 -1.67526 -1.35156
rclavicle -1.08338e-014 1.11319e-014
rhumerus -49.3207 -2.63443 -72.2343
rradius 20.8755
rwrist -19.2265
rhand -14.3711 19.5737
rfingers 7.12502
rthumb 11.7713 -10.0755
lclavicle -1.08338e-014 1.11319e-014
lhumerus -57.2614 -3.67155 92.7258
lradius 29.9612
lwrist -0.0606938
lhand 5.98646 15.2279
lfingers 7.12502
lthumb 31.3104 42.5697
rfemur -41.3929 3.26186 34.7831
rtibia 30.0386
rfoot -29.6299 -30.5377
rtoes 18.1896
lfemur -19.0179 20.7196 -26.985
ltibia 39.0601
lfoot 21.7967 45.2307
ltoes 36.7548
180
root 4.5025 16.5343 -15.124 27.8102 7.54198 -4.24156
lowerback -17.8381 -0.344979 5.48969
upperback -11.0504 -1.2202 5.10083
thorax -1.90389 -0.703505 2.11805
lowerneck -13.5234 -2.67017 -0.425099
upperneck 43.3551 -3.33166 -1.92766
head 18.6374 -1.64004 -1.47106
rclavicle -6.01324e-015 -1.59028e-014
rhumerus -49.2222 -3.4 -71.7437
rradius 20.5105
rwrist -18.6698
rhand -14.304 19.7825
rfingers 7.12502
rthumb 11.836 -9.86298
lclavicle -6.01324e-015 -1.59028e-014
lhumerus -57.1365 -3.54919 92.6374
lradius 29.8861
lwrist -0.309575
lhand 6.17967 15.3545
lfingers 7.12502
lthumb 31.4945 42.6605
rfemur -40.9983 3.14426 34.8584
rtibia 29.9993
rfoot -29.566 -30.4727
rtoes 17.8177
lfemur -18.6097 20.9361 -26.8828
ltibia 39.0419
lfoot 41.8653 32.4538
ltoes -0.221534
181
root 4.49554 16.5354 -15.1375 28.125 7.74146 -4.14244
lowerback -18.0356 -0.474433 5.38374
upperback -11.0927 -1.38919 5.16602
thorax -1.84351 -0.780495 2.21885
lowerneck -13.8727 -2.6156 -0.398389
upperneck 43.4797 -3.23352 -1.98209
head 18.8132 -1.60051 -1.49736
rclavicle -2.74323e-014 1.59028e-014
rhumerus -49.0836 -4.24225 -71.1349
rradius 20.2387
rwrist -17.9497
rhand -14.2065 19.7647
rfingers 7.12502
rthumb 11.93 -9.87535
lclavicle -2.74323e-014 1.59028e-014
lhumerus -56.8613 -3.4041 92.6382
lradius 29.6298
lwrist -0.482169
lhand 6.0466 15.2016
lfingers 7.12502
lthumb 31.3677 42.5323
rfemur -41.4131 3.29807 34.7409
rtibia 29.9664
rfoot -29.1753 -30.9653
rtoes 17.7239
lfemur -19.0658 20.6541 -27.0111
ltibia 39.0752
lfoot 36.4706 39.1067
ltoes 14.2382
182
root 4.49633 16.5356 -15.1365 28.0488 7.83071 -4.27291
lowerback -18.0274 -0.476496 5.5855
upperback -11.0726 -1.42206 5.20794
thorax -1.83267 -0.805372 2.14523
lowerneck -13.8427 -2.60207 -0.412703
upperneck 43.4525 -3.20839 -1.98016
head 18.7885 -1.59366 -1.48744
rclavicle 2.76808e-014 -2.54444e-014
rhumerus -49.189 -4.60524 -70.9637
rradius 20.1281
rwrist -17.7757
rhand -14.3645 19.6135
rfingers 7.12502
rthumb 11.7776 -10.0353
lclavicle 2.76808e-014 -2.54444e-014
lhumerus -56.8452 -3.32674 92.6503
lradius 29.6607
lwrist -0.565006
lhand 5.89556 15.2492
lfingers 7.12502
lthumb 31.2238 42.6078
rfemur -41.3236 3.1718 34.9442
rtibia 29.9308
rfoot -32.0545 -29.7201
rtoes 22.6265
lfemur -19.0138 20.5953 -26.819
ltibia 39.0701
lfoot 42.871 32.5978
ltoes 1.49562
183
root 4.49767 16.5366 -15.1333 28.0048 7.90026 -4.34339
lowerback -18.0456 -0.461373 5.72185
upperback -11.1233 -1.41893 5.20329
thorax -1.88454 -0.81158 2.06586
lowerneck -13.7051 -2.62938 -0.406792
upperneck 43.5159 -3.24858 -1.99806
head 18.7886 -1.61105 -1.50331
rclavicle -1.02871e-014 1.43125e-014
rhumerus -49.3327 -5.04133 -70.7212
rradius 19.7786
rwrist -17.5426
rhand -14.5741 19.471
rfingers 7.12502
rthumb 11.5755 -10.1893
lclavicle -1.02871e-014 1.43125e-014
lhumerus -57.0061 -3.39304 92.7311
lradius 29.7942
lwrist -0.493519
lhand 5.66687 15.4956
lfingers 7.12502
lthumb 31.0058 42.8959
rfemur -41.2632 2.87956 35.1658
rtibia 29.9003
rfoot -28.9064 -30.667
rtoes 16.2408
lfemur -19.0025 20.5645 -26.704
ltibia 39.1029
lfoot 36.1731 38.8973
ltoes 15.3132
184
root 4.4987 16.537 -15.1315 27.9919 7.82285 -4.25207
lowerback -18.137 -0.45769 5.66391
upperback -11.1112 -1.41504 5.15102
thorax -1.82305 -0.807549 2.04155
lowerneck -13.6069 -2.64911 -0.432978
upperneck 43.5702 -3.28132 -1.97997
head 18.7964 -1.62588 -1.49549
rclavicle 9.69075e-015 -7.95139e-015
rhumerus -49.3225 -5.81595 -70.2062
rradius 19.1719
rwrist -16.9258
rhand -14.768 19.471
rfingers 7.12502
rthumb 11.3885 -10.1998
lclavicle 9.69075e-015 -7.95139e-015
lhumerus -57.0399 -3.47382 92.7946
lradius 29.8515
lwrist -0.560126
lhand 5.632 15.7137
lfingers 7.12502
lthumb 30.9726 43.1204
rfemur -41.2285 2.65904 35.1574
rtibia 29.8663
rfoot -28.4592 -30.7513
rtoes 15.9118
lfemur -18.9541 20.5439 -26.8257
ltibia 39.0484
lfoot 43.8656 29.7551
ltoes -6.02904
185
root 4.49789 16.5374 -15.1329 27.9592 7.74935 -4.28542
lowerback -18.0891 -0.439604 5.69612
upperback -11.1434 -1.38954 5.14473
thorax -1.88433 -0.797919 2.02244
lowerneck -13.4433 -2.65467 -0.45692
upperneck 43.5497 -3.29184 -1.96033
head 18.7387 -1.63307 -1.47872
rclavicle 1.38155e-014 -3.18055e-015
rhumerus -49.4383 -6.71348 -69.5238
rradius 18.6665
rwrist -16.0845
rhand -14.6539 19.9327
rfingers 7.12502
rthumb 11.4985 -9.73192
lclavicle 1.38155e-014 -3.18055e-015
lhumerus -57.1283 -3.35541 92.6942
lradius 29.9156
lwrist -0.718982
lhand 5.68713 15.8669
lfingers 7.12502
lthumb 31.0252 43.2636
rfemur -41.1808 2.83839 35.1006
rtibia 29.8644
rfoot -28.6485 -30.7533
rtoes 16.8468
lfemur -18.9409 20.6034 -26.8224
ltibia 39.0318
lfoot 38.7717 36.8067
ltoes 9.59774
186
root 4.50145 16.5353 -15.1239 27.7032 7.51386 -4.41908
lowerback -17.9692 -0.332128 5.84223
upperback -11.0551 -1.26658 5.10175
thorax -1.85488 -0.744077 1.91377
lowerneck -13.3212 -2.67033 -0.450625
upperneck 43.4996 -3.33679 -1.91962
head 18.6732 -1.64615 -1.46384
rclavicle -1.6201e-014 1.59028e-014
rhumerus -49.558 -7.82497 -68.7178
rradius 18.1791
rwrist -14.9865
rhand -14.5165 20.4985
rfingers 7.12502
rthumb 11.6311 -9.15866
lclavicle -1.6201e-014 1.59028e-014
lhumerus -57.133 -3.39462 92.6969
lradius 29.9288
lwrist -0.580943
lhand 5.47951 15.9687
lfingers 7.12502
lthumb 30.8272 43.403
rfemur -40.8235 2.85559 35.1927
rtibia 29.8502
rfoot -28.8547 -30.409
rtoes 17.0344
lfemur -18.6053 20.8725 -26.6998
ltibia 39.01
lfoot 42.7543 30.7952
ltoes -2.72707
187
root 4.49344 16.5386 -15.1338 28.0271 7.72528 -4.29834
lowerback -18.2557 -0.416472 5.73525
upperback -11.1189 -1.38177 5.07899
thorax -1.77495 -0.796155 1.92905
lowerneck -13.1662 -2.68119 -0.481239
upperneck 43.3547 -3.37438 -1.84328
head 18.5418 -1.65919 -1.41988
rclavicle -1.54058e-014 3.18055e-014
rhumerus -49.5133 -9.02406 -67.8928
rradius 17.6239
rwrist -13.7515
rhand -14.5746 20.5595
rfingers 7.12502
rthumb 11.5751 -9.10088
lclavicle -1.54058e-014 3.18055e-014
lhumerus -57.0058 -3.47578 92.7293
lradius 29.9348
lwrist -0.395675
lhand 5.26006 16.0772
lfingers 7.12502
lthumb 30.618 43.5508
rfemur -41.2128 3.13167 35.0034
rtibia 29.8099
rfoot -29.015 -30.6519
rtoes 17.5478
lfemur -19.0671 20.6087 -26.8281
ltibia 39.0581
lfoot 39.9873 36.2644
ltoes 8.53065
188
root 4.49216 16.5408 -15.1357 28.0831 7.86447 -4.39291
lowerback -18.4199 -0.415956 5.87969
upperback -11.0957 -1.41879 5.10139
thorax -1.67116 -0.818768 1.86373
lowerneck -13.0878 -2.70256 -0.492633
upperneck 43.2713 -3.40152 -1.84582
head 18.4677 -1.67422 -1.41919
rclavicle 2.58917e-014 -1.27222e-014
rhumerus -49.587 -9.55696 -67.6077
rradius 17.4254
rwrist -13.3399
rhand -14.7462 20.5879
rfingers 7.12502
rthumb 11.4095 -9.08162
lclavicle 2.58917e-014 -1.27222e-014
lhumerus -56.9172 -3.63233 92.903
lradius 29.9017
lwrist 0.0722277
lhand 4.75109 15.9206
lfingers 7.12502
lthumb 30.1325 43.4838
rfemur -41.2788 3.07175 35.1589
rtibia 29.757
rfoot -28.8821 -30.6747
rtoes 17.6924
lfemur -19.2098 20.6148 -26.6973
ltibia 39.0789
lfoot 46.0741 27.6466
ltoes -8.53683
189
root 4.496 16.5426 -15.1296 28.045 7.83831 -4.53999
lowerback -18.5137 -0.322026 6.10189
upperback -11.0417 -1.34169 5.08675
thorax -1.5727 -0.788733 1.73448
lowerneck -13.1618 -2.75473 -0.526802
upperneck 43.2729 -3.49582 -1.79289
head 18.4907 -1.70962 -1.4075
rclavicle 1.99282e-014 -1.35174e-014
rhumerus -49.7768 -9.77902 -67.6069
rradius 17.4886
rwrist -13.4649
rhand -14.8568 20.8499
rfingers 7.12502
rthumb 11.3029 -8.82559
lclavicle 1.99282e-014 -1.35174e-014
lhumerus -56.8482 -3.863 93.133
lradius 29.7417
lwrist 0.647357
lhand 4.01613 15.4855
lfingers 7.12502
lthumb 29.4311 43.1743
rfemur -41.2169 2.75518 35.4452
rtibia 29.7202
rfoot -28.4645 -30.6654
rtoes 16.5266
lfemur -19.2238 20.7911 -26.5591
ltibia 39.1639
lfoot 41.6699 33.9863
ltoes 2.77482
190
root 4.49763 16.5415 -15.1234 27.8393 7.68252 -4.60981
lowerback -18.3401 -0.251883 6.18795
upperback -11.0196 -1.24814 5.04714
thorax -1.64016 -0.748526 1.66104
lowerneck -13.0798 -2.79729 -0.480515
upperneck 43.2922 -3.56217 -1.83569
head 18.4759 -1.73504 -1.44696
rclavicle 1.06847e-014 -1.43125e-014
rhumerus -50.0346 -10.1534 -67.3874
rradius 17.3123
rwrist -13.3391
rhand -14.9825 21.1673
rfingers 7.12502
rthumb 11.1816 -8.51471
lclavicle 1.06847e-014 -1.43125e-014
lhumerus -56.9485 -3.97184 93.2482
lradius 29.6341
lwrist 1.00719
lhand 3.50534 15.3702
lfingers 7.12502
lthumb 28.9433 43.1437
rfemur -40.9213 2.59847 35.5623
rtibia 29.6594
rfoot -28.3765 -30.4775
rtoes 15.9374
lfemur -18.9821 21.0382 -26.4743
ltibia 39.2107
lfoot 45.1624 26.9541
ltoes -10.6038
